<?xml version="1.0" encoding="utf-8"?><svg version="1.1" id="Layer_1" xmlns="http://www.w3.org/2000/svg" xmlns:xlink="http://www.w3.org/1999/xlink" x="0px" y="0px" viewBox="0 0 113.45 122.88" style="enable-background:new 0 0 113.45 122.88" xml:space="preserve"><style type="text/css">.st0{fill-rule:evenodd;clip-rule:evenodd;}</style><g><path class="st0" d="M105.36,68.94c5.04,5.72,8.09,13.23,8.09,21.45c0,17.94-14.54,32.49-32.49,32.49 c-12.45,0-23.27-7.01-28.72-17.29H37.43v6.94h-22.1v-6.94H0.01v-8.06h15.32v-7.01h7.02V74.65H7.24c-1.99,0-3.8-0.81-5.11-2.12 C0.81,71.22,0,69.41,0,67.42V41.99c0-1.77,0.64-3.4,1.71-4.66C0.64,36.07,0,34.44,0,32.66V7.24c0-1.99,0.81-3.8,2.12-5.11 C3.43,0.81,5.24,0,7.24,0h91.06c1.99,0,3.8,0.81,5.11,2.12c1.31,1.31,2.12,3.12,2.12,5.11v25.43c0,1.77-0.65,3.4-1.71,4.66 c1.07,1.26,1.71,2.89,1.71,4.66v25.43C105.53,67.93,105.47,68.44,105.36,68.94L105.36,68.94z M81.25,70.63 c10.74,0,19.46,8.71,19.46,19.45c0,10.74-8.71,19.45-19.46,19.45c-10.74,0-19.45-8.71-19.45-19.45 C61.8,79.34,70.51,70.63,81.25,70.63L81.25,70.63z M78.55,80.29h2.38c0.44,0,0.79,0.36,0.79,0.79v9.16h8.36 c0.44,0,0.79,0.36,0.79,0.79v2.38c0,0.44-0.36,0.79-0.79,0.79H77.76V81.09C77.76,80.65,78.12,80.29,78.55,80.29L78.55,80.29z M49.27,97.53c-0.52-2.3-0.79-4.69-0.79-7.14c0-5.71,1.48-11.08,4.06-15.74H30.4v15.88h7.02v7.01H49.27L49.27,97.53z M26.38,96.51 c2.77,0,5.02,2.25,5.02,5.02c0,2.77-2.25,5.02-5.02,5.02c-2.77,0-5.02-2.25-5.02-5.02C21.36,98.76,23.6,96.51,26.38,96.51 L26.38,96.51z M14.17,13.03h5.35v13.85h-5.35V13.03L14.17,13.03z M87.69,50.46c2.34,0,4.24,1.9,4.24,4.24c0,2-1.38,3.67-3.24,4.12 c1.68,0.41,3.31,0.95,4.88,1.61c2.45,1.03,4.75,2.34,6.86,3.91V41.99c0-0.58-0.24-1.12-0.63-1.5c-0.3-0.3-0.69-0.51-1.12-0.59 c-0.13,0.01-0.26,0.01-0.38,0.01H7.24c-0.13,0-0.26,0-0.38-0.01c-0.43,0.08-0.82,0.29-1.12,0.59C5.34,40.87,5.1,41.4,5.1,41.99 v25.43c0,0.58,0.24,1.12,0.63,1.5c0.39,0.39,0.92,0.63,1.5,0.63H55.8c2.94-3.48,6.58-6.34,10.7-8.35 c4.35-2.12,9.23-3.31,14.39-3.31c1.48,0,2.94,0.1,4.37,0.29c-1.1-0.77-1.81-2.04-1.81-3.48C83.45,52.36,85.35,50.46,87.69,50.46 L87.69,50.46z M71.54,50.46c2.34,0,4.24,1.9,4.24,4.24c0,2.34-1.9,4.24-4.24,4.24c-2.34,0-4.24-1.9-4.24-4.24 C67.3,52.36,69.2,50.46,71.54,50.46L71.54,50.46z M43.75,47.78h5.35v13.85h-5.35V47.78L43.75,47.78z M28.96,47.78h5.35v13.85h-5.35 V47.78L28.96,47.78z M14.17,47.78h5.35v13.85h-5.35V47.78L14.17,47.78z M87.69,15.71c2.34,0,4.24,1.9,4.24,4.24 c0,2.34-1.9,4.24-4.24,4.24c-2.34,0-4.24-1.9-4.24-4.24C83.45,17.61,85.35,15.71,87.69,15.71L87.69,15.71z M71.54,15.71 c2.34,0,4.24,1.9,4.24,4.24c0,2.34-1.9,4.24-4.24,4.24c-2.34,0-4.24-1.9-4.24-4.24C67.3,17.61,69.2,15.71,71.54,15.71L71.54,15.71z M43.75,13.03h5.35v13.85h-5.35V13.03L43.75,13.03z M28.96,13.03h5.35v13.85h-5.35V13.03L28.96,13.03z M6.85,34.76 c0.13-0.01,0.26-0.01,0.38-0.01h91.06c0.13,0,0.26,0,0.38,0.01c0.43-0.08,0.82-0.29,1.12-0.59c0.39-0.39,0.63-0.92,0.63-1.5V7.24 c0-0.58-0.24-1.12-0.63-1.51c-0.39-0.39-0.92-0.63-1.5-0.63H7.24c-0.58,0-1.12,0.24-1.51,0.63C5.34,6.12,5.1,6.65,5.1,7.24v25.43 c0,0.58,0.24,1.12,0.63,1.5C6.03,34.47,6.42,34.68,6.85,34.76L6.85,34.76z M97.96,68.85c-1.93-1.5-4.06-2.76-6.34-3.72 c-3.29-1.38-6.92-2.14-10.72-2.14c-2.37,0-4.67,0.3-6.87,0.86c-11.79,3.08-20.49,13.8-20.49,26.55c0,15.15,12.28,27.44,27.44,27.44 s27.44-12.28,27.44-27.44C108.4,81.66,104.32,73.88,97.96,68.85L97.96,68.85z"/></g></svg>